<?xml version="1.0" encoding="UTF-8"?><svg id="a" xmlns="http://www.w3.org/2000/svg" viewBox="0 0 861.54 270.12"><defs><style>.b{fill:#20252c;}</style></defs><path class="b" d="m385.41,86.28v66.97l.12,8.87h-12.76l.12-8.87v-66.97h-15.43v-11.06h43.39v11.06h-15.44Z"/><path class="b" d="m451.17,75.22l-.12,8.87v69.15l.12,8.87h-12.64l.12-8.87v-30.87h-17.99v30.87l.12,8.87h-12.76l.12-8.87v-69.15l-.12-8.87h12.76l-.12,8.87v27.1h17.99v-27.1l-.12-8.87h12.64Z"/><path class="b" d="m477.54,122.38v28.68h24.79v11.06h-37.43l.12-8.87v-69.15l-.12-8.87h36.95v11.06h-24.31v24.92h19.57v11.18h-19.57Z"/><path class="b" d="m533.82,162.12h-12.88l15.8-86.9h17.02l15.8,86.9h-12.64l-3.28-19.2h-16.65l-3.16,19.2Zm4.98-30.51h13l-4.74-28.07c-.61-3.89-1.09-9.24-1.46-12.15h-.73c-.24,2.92-.85,8.27-1.46,12.15l-4.62,28.07Z"/><path class="b" d="m589.13,125.42v27.83l.12,8.87h-12.76l.12-8.87v-69.15l-.12-8.87h18.84c19.57,0,24.31,11.3,24.31,25.16v.24c0,9.6-2.92,17.99-11.06,22.12l13.13,39.38h-13.37l-11.79-36.7h-7.41Zm0-10.7h5.47c9.48,0,12.15-6.2,12.15-14.1v-.24c0-7.9-2.43-14.1-12.88-14.1h-4.74v28.44Z"/><path class="b" d="m649.05,86.28v66.97l.12,8.87h-12.76l.12-8.87v-66.97h-15.43v-11.06h43.39v11.06h-15.44Z"/><path class="b" d="m679.32,138.3c1.22,9.6,5.47,13.61,11.79,13.61,5.96,0,9.36-3.53,9.36-9.36s-3.28-10.57-9.97-16.04l-8.99-7.41c-8.87-6.93-12.64-14.83-12.64-23.46,0-13.37,8.87-21.88,21.88-21.88s20.05,8.39,21.63,21.63l-12.4,1.7c-.61-7.05-3.65-11.67-9.6-11.67-5.23,0-8.75,3.52-8.75,9.6,0,5.59,3.52,10.09,9.85,15.07l8.87,7.42c8.63,6.68,12.88,14.95,12.88,24.31,0,13.49-8.63,21.76-22.24,21.76s-22.24-8.63-23.82-23.7l12.15-1.58Z"/><path class="b" d="m367.09,265.5c-4.5-3.89-6.93-10.33-6.93-26.74v-27.22c0-16.29,2.43-22.73,6.93-26.62,3.16-2.79,8.26-4.62,14.71-4.62,5.96,0,10.82,1.58,14.34,4.62,4.98,4.25,7.05,11.3,7.05,24.92v.24h-12.64v-.24c0-9.48,0-17.87-8.87-17.87s-8.87,8.39-8.87,16.89v32.57c0,9.12,0,17.02,8.87,17.02s9.12-8.14,9.12-19.81v-.24h12.64v.24c0,17.01-2.67,22.97-7.17,26.86-3.28,2.79-8.02,4.62-14.46,4.62s-11.55-1.82-14.71-4.62Z"/><path class="b" d="m419.36,265.5c-4.5-3.89-7.05-9.85-7.05-26.62v-27.35c0-16.77,2.55-22.73,7.05-26.62,3.52-2.92,8.39-4.62,14.46-4.62s11.06,1.7,14.46,4.62c4.5,3.89,7.17,9.85,7.17,26.62v27.35c0,16.77-2.67,22.73-7.17,26.62-3.4,3.04-8.39,4.62-14.46,4.62s-10.94-1.58-14.46-4.62Zm23.46-23.94v-32.7c0-8.75,0-16.89-8.99-16.89s-8.87,8.14-8.87,16.89v32.7c0,8.75,0,16.89,8.87,16.89s8.99-8.14,8.99-16.89Z"/><path class="b" d="m467.13,259.78v-69.15l-.12-8.87h17.01l10.82,49.95c.73,3.16,1.34,7.9,1.58,11.06h.49c.24-3.16.85-7.9,1.58-11.06l10.7-49.95h16.89l-.12,8.87v69.15l.12,8.87h-11.55l.12-8.87v-46.06c0-3.4.36-8.14.49-11.18h-.49c-.49,3.04-1.09,7.66-1.82,10.94l-11.67,55.18h-9.36l-11.55-55.18c-.73-3.28-1.46-7.9-1.82-10.94h-.49c.12,3.04.36,7.78.36,11.18v46.06l.12,8.87h-11.43l.12-8.87Z"/><path class="b" d="m537.51,259.78v-69.15l-.12-8.87h17.01l10.82,49.95c.73,3.16,1.34,7.9,1.58,11.06h.49c.24-3.16.85-7.9,1.58-11.06l10.7-49.95h16.89l-.12,8.87v69.15l.12,8.87h-11.55l.12-8.87v-46.06c0-3.4.36-8.14.49-11.18h-.49c-.49,3.04-1.09,7.66-1.82,10.94l-11.67,55.18h-9.36l-11.55-55.18c-.73-3.28-1.46-7.9-1.82-10.94h-.49c.12,3.04.36,7.78.36,11.18v46.06l.12,8.87h-11.43l.12-8.87Z"/><path class="b" d="m622.95,181.76l-.12,8.87v69.15l.12,8.87h-12.76l.12-8.87v-69.15l-.12-8.87h12.76Z"/><path class="b" d="m643.01,244.84c1.22,9.6,5.47,13.61,11.79,13.61,5.96,0,9.36-3.53,9.36-9.36s-3.28-10.57-9.97-16.04l-8.99-7.41c-8.87-6.93-12.64-14.83-12.64-23.46,0-13.37,8.87-21.88,21.88-21.88s20.05,8.39,21.63,21.63l-12.4,1.7c-.61-7.05-3.65-11.67-9.6-11.67-5.23,0-8.75,3.52-8.75,9.6,0,5.59,3.52,10.09,9.85,15.07l8.87,7.42c8.63,6.68,12.88,14.95,12.88,24.31,0,13.49-8.63,21.76-22.24,21.76s-22.24-8.63-23.82-23.7l12.15-1.58Z"/><path class="b" d="m692.96,244.84c1.22,9.6,5.47,13.61,11.79,13.61,5.96,0,9.36-3.53,9.36-9.36s-3.28-10.57-9.97-16.04l-8.99-7.41c-8.87-6.93-12.64-14.83-12.64-23.46,0-13.37,8.87-21.88,21.88-21.88s20.05,8.39,21.63,21.63l-12.4,1.7c-.61-7.05-3.65-11.67-9.6-11.67-5.23,0-8.75,3.52-8.75,9.6,0,5.59,3.52,10.09,9.85,15.07l8.87,7.42c8.63,6.68,12.88,14.95,12.88,24.31,0,13.49-8.63,21.76-22.24,21.76s-22.24-8.63-23.82-23.7l12.15-1.58Z"/><path class="b" d="m748.02,181.76l-.12,8.87v69.15l.12,8.87h-12.76l.12-8.87v-69.15l-.12-8.87h12.76Z"/><path class="b" d="m766.74,265.5c-4.5-3.89-7.05-9.85-7.05-26.62v-27.35c0-16.77,2.55-22.73,7.05-26.62,3.53-2.92,8.39-4.62,14.46-4.62s11.06,1.7,14.46,4.62c4.5,3.89,7.17,9.85,7.17,26.62v27.35c0,16.77-2.67,22.73-7.17,26.62-3.4,3.04-8.39,4.62-14.46,4.62s-10.94-1.58-14.46-4.62Zm23.46-23.94v-32.7c0-8.75,0-16.89-8.99-16.89s-8.87,8.14-8.87,16.89v32.7c0,8.75,0,16.89,8.87,16.89s8.99-8.14,8.99-16.89Z"/><path class="b" d="m827.39,181.76l18.35,45.82c1.82,4.62,2.8,7.78,3.77,10.82h.49c-.24-3.16-.61-8.02-.61-11.42v-36.34l-.12-8.87h12.28l-.12,8.87v69.15l.12,8.87h-11.55l-19.69-49.95c-1.82-4.5-2.92-7.78-3.89-10.82h-.49c.24,3.16.61,8.02.61,11.42v40.47l.12,8.87h-12.28l.12-8.87v-69.15l-.12-8.87h13Z"/><polygon class="b" points="176.44 268.73 311.32 268.73 158.15 134.18 99.75 204.44 176.44 268.73"/><polygon class="b" points="156.6 114.31 212.52 163.6 212.52 10.57 0 268.73 155.05 268.73 80.22 206.2 156.6 114.31"/><polygon class="b" points="317.24 74.66 226.4 0 226.41 175.83 317.19 255.39 317.24 74.66"/></svg>